<?xml version="1.0" standalone="no"?>
<!DOCTYPE svg PUBLIC "-//W3C//DTD SVG 20010904//EN"
 "http://www.w3.org/TR/2001/REC-SVG-20010904/DTD/svg10.dtd">
<svg version="1.0" xmlns="http://www.w3.org/2000/svg"
 width="1054.000000pt" height="1054.000000pt" viewBox="0 0 1054.000000 1054.000000"
 preserveAspectRatio="xMidYMid meet">
<metadata>
Created by potrace 1.14, written by Peter Selinger 2001-2017
</metadata>
<g transform="translate(0.000000,1054.000000) scale(0.100000,-0.100000)"
fill="#000000" stroke="none">
<path d="M1245 6429 c-360 -53 -576 -134 -785 -294 -167 -128 -232 -235 -233
-386 -1 -103 21 -156 89 -219 52 -48 159 -100 204 -100 27 0 31 3 28 23 -2 16
-23 32 -81 62 -42 22 -92 55 -110 73 -30 30 -32 37 -31 100 2 271 374 500 944
581 180 25 340 33 468 22 354 -31 506 -93 579 -235 21 -42 24 -60 21 -120 -5
-93 -34 -152 -119 -237 -217 -219 -629 -379 -1132 -440 -54 -6 -100 -9 -104
-6 -8 8 135 244 236 389 158 226 315 362 400 345 15 -3 33 -2 41 3 12 8 12 14
-3 45 -37 78 -192 114 -287 65 -77 -39 -155 -106 -212 -182 -73 -95 -98 -147
-98 -201 0 -46 -36 -125 -159 -352 l-60 -110 -61 -3 c-56 -3 -61 -5 -58 -25 2
-15 14 -24 38 -31 19 -5 36 -10 38 -11 2 -2 -33 -76 -76 -166 -123 -254 -182
-415 -182 -494 0 -28 5 -37 31 -51 17 -8 57 -16 89 -17 53 -2 62 1 90 28 45
43 190 247 190 268 0 32 -23 17 -106 -69 -63 -66 -87 -85 -104 -82 -13 1 -27
10 -33 19 -16 26 30 150 138 364 88 176 103 200 125 202 439 31 586 56 845
145 267 91 453 212 548 356 62 94 80 154 75 255 -5 114 -36 178 -131 271 -119
117 -251 169 -537 211 -105 16 -418 18 -515 4z"/>
<path d="M7021 5968 c-29 -16 -94 -119 -186 -293 -97 -186 -93 -182 -165 -187
-70 -5 -110 -34 -110 -79 0 -34 24 -49 75 -49 l36 0 -45 -85 c-25 -46 -58
-101 -73 -123 -78 -107 -205 -262 -259 -318 l-62 -62 -171 -7 c-95 -4 -175 -5
-178 -1 -9 9 37 162 77 256 20 47 55 116 78 153 49 81 46 100 -21 117 -23 6
-48 13 -55 15 -27 9 -71 -27 -193 -156 -165 -177 -196 -207 -320 -321 l-106
-96 -84 -6 c-164 -11 -209 -12 -209 -5 0 28 50 133 100 209 158 240 436 439
678 486 58 11 150 -6 181 -32 38 -31 51 -30 51 4 0 35 -38 73 -100 101 -63 29
-203 29 -290 0 -218 -72 -522 -282 -653 -453 -91 -118 -223 -251 -297 -301
l-65 -43 -265 -15 c-145 -9 -268 -13 -272 -11 -25 16 12 148 69 254 100 183
343 407 511 470 51 20 60 20 82 8 23 -13 25 -19 22 -80 -3 -54 0 -67 14 -72
56 -22 116 173 67 216 -92 81 -254 60 -443 -58 -156 -98 -271 -199 -410 -364
-183 -215 -299 -315 -450 -387 -61 -28 -77 -31 -245 -41 -180 -11 -180 -11
-198 11 -16 18 -18 34 -15 92 8 131 81 264 233 423 104 109 194 180 290 227
137 67 172 56 160 -50 -5 -55 -4 -63 12 -69 25 -10 58 31 77 95 20 67 12 104
-32 137 -50 38 -154 43 -243 12 -181 -63 -375 -209 -574 -430 -194 -215 -319
-323 -475 -407 -247 -132 -450 -122 -475 25 -7 41 21 146 60 222 39 77 137
201 224 282 148 139 339 246 390 219 50 -27 13 -130 -78 -214 -101 -93 -323
-221 -407 -234 -52 -8 -68 -21 -52 -41 31 -37 255 24 405 110 184 105 284 252
252 370 -23 88 -67 118 -173 118 -155 0 -385 -134 -596 -349 -107 -108 -154
-177 -185 -270 -53 -155 -15 -285 99 -346 l36 -20 -446 -37 c-858 -71 -1422
-136 -1526 -177 -52 -20 -34 -38 55 -52 106 -18 1308 -18 1862 -1 1691 54
3581 144 5005 238 142 9 277 13 341 9 83 -6 117 -3 160 9 34 11 179 25 399 41
190 14 401 30 469 35 163 13 154 14 173 -20 44 -76 155 -92 286 -41 40 16 97
47 126 69 45 35 63 42 117 47 35 3 83 8 106 11 35 4 42 2 48 -15 11 -35 67
-83 130 -112 207 -93 499 -22 735 180 53 46 58 48 165 65 136 21 182 35 190
54 3 8 4 16 2 18 -2 2 -44 9 -94 16 l-91 12 43 49 c24 28 52 65 62 84 16 30
16 35 3 43 -28 18 -45 10 -87 -42 -23 -29 -61 -71 -85 -93 l-43 -40 -363 3
-362 2 15 30 c91 175 352 416 522 480 51 19 61 20 83 8 55 -30 33 -101 -59
-191 -113 -111 -317 -235 -416 -252 -67 -12 -84 -36 -37 -53 54 -19 271 52
406 132 85 51 175 136 207 196 33 64 34 171 1 218 -33 46 -71 62 -145 62 -79
0 -153 -25 -272 -91 -155 -86 -289 -205 -523 -467 l-73 -82 -185 0 -185 0 42
78 c58 106 130 213 203 300 126 152 145 192 108 225 -15 14 -42 17 -159 17
-149 0 -263 8 -263 20 0 3 29 53 65 111 36 57 65 113 65 124 0 30 -19 45 -56
45 -27 0 -41 -9 -81 -56 -118 -139 -144 -162 -224 -201 -56 -27 -78 -43 -79
-57 0 -29 30 -45 82 -46 26 0 49 -4 52 -8 8 -13 -132 -237 -221 -357 -80 -106
-95 -137 -73 -150 28 -17 88 53 275 320 138 198 127 188 205 180 128 -12 170
-36 170 -96 0 -40 -20 -70 -140 -204 -77 -87 -148 -180 -168 -221 l-15 -32
-231 -6 c-127 -3 -282 -9 -345 -12 l-115 -7 23 34 c46 70 99 190 111 253 l12
66 72 0 c125 1 286 49 286 86 0 14 -7 16 -47 10 -131 -18 -260 -18 -342 -2
-77 16 -85 16 -108 0 -24 -15 -25 -20 -18 -68 16 -120 4 -182 -62 -308 l-35
-67 -51 -5 c-29 -3 -135 -8 -235 -11 l-184 -6 7 33 c24 113 135 290 260 415
90 89 171 143 218 143 27 0 57 -37 57 -71 0 -27 3 -30 27 -27 64 7 43 133 -29
178 -28 18 -46 20 -113 18 -85 -4 -119 -16 -212 -74 -95 -60 -209 -190 -290
-329 -23 -38 -87 -120 -142 -182 -117 -129 -89 -118 -338 -128 -122 -5 -153
-3 -153 7 0 63 249 573 285 583 5 2 57 8 115 15 219 25 359 69 294 94 -25 9
-134 7 -244 -5 -55 -7 -103 -9 -106 -6 -11 10 124 243 166 286 74 76 92 163
40 188 -42 20 -103 25 -129 11z m-1290 -1072 c-12 -46 -21 -98 -21 -114 0 -27
-3 -30 -46 -36 -26 -3 -69 -6 -96 -6 l-50 0 109 116 c59 63 110 120 112 125 1
6 5 8 8 5 3 -2 -5 -43 -16 -90z m720 -51 l-19 -60 -42 -3 -43 -3 59 64 c33 36
60 64 61 63 1 -1 -6 -29 -16 -61z m695 -10 c-5 -19 -13 -25 -33 -25 l-27 0 29
30 c32 34 40 32 31 -5z m-4215 -56 c-4 -68 5 -110 34 -153 21 -31 22 -36 7
-36 -9 -1 -98 -7 -197 -14 -99 -7 -182 -12 -184 -10 -2 2 5 7 15 11 42 15 199
128 262 188 37 36 67 64 67 65 0 0 -2 -23 -4 -51z m1012 -115 c4 -8 -25 -14
-94 -19 -55 -4 -102 -5 -104 -3 -2 2 38 40 88 84 l92 81 5 -66 c3 -37 9 -71
13 -77z m961 84 c3 -17 4 -33 2 -36 -3 -2 -27 -7 -53 -9 l-48 -5 40 40 c22 22
43 41 46 41 4 1 9 -13 13 -31z m5076 -32 c-31 -30 -208 -116 -280 -135 -138
-38 -250 -19 -285 50 -11 21 -13 34 -6 38 5 4 119 17 253 30 134 13 245 25
247 27 2 2 23 4 45 4 35 0 38 -2 26 -14z m-1143 -103 c-25 -10 -46 -13 -65 -7
-24 7 -22 9 23 14 79 11 82 10 42 -7z"/>
</g>
</svg>
